<?xml version="1.0" encoding="UTF-8"?>
<svg version="1.1" xmlns="http://www.w3.org/2000/svg" width="512" height="512">
<path d="M0 0 C7.77206679 6.99146619 11.9599993 17.21467006 13.0390625 27.484375 C13.0390625 28.804375 13.0390625 30.124375 13.0390625 31.484375 C21.72644027 32.27206233 30.30975931 32.61460096 39.03027344 32.55029297 C40.25641861 32.54562012 41.48256378 32.54094727 42.74586487 32.53613281 C45.38339505 32.52570587 48.02084739 32.51349633 50.65834808 32.49840927 C54.8372607 32.47506995 59.01616895 32.46196322 63.19512939 32.45071411 C75.06813778 32.41750106 86.94107264 32.37558703 98.81396484 32.31298828 C105.39389854 32.2783819 111.97378005 32.25463125 118.5537951 32.24277985 C122.70028233 32.23472826 126.84642275 32.2136039 130.99279833 32.18257499 C134.18365348 32.16269774 137.37452087 32.16272559 140.56542969 32.15966797 C141.70019241 32.1473111 142.83495514 32.13495422 144.00410461 32.1222229 C151.80265542 32.14189091 159.85872409 32.82899479 165.9140625 38.296875 C166.44773437 38.75707031 166.98140625 39.21726563 167.53125 39.69140625 C172.43939316 45.52777337 172.47542039 51.0492127 172.44311523 58.31982422 C172.45341011 59.9404628 172.45341011 59.9404628 172.46391296 61.59384155 C172.48218733 65.15904957 172.47834205 68.72381777 172.47265625 72.2890625 C172.47721802 74.77239118 172.48252358 77.2557186 172.48854065 79.73904419 C172.49747326 84.94245534 172.49504712 90.14571303 172.48510742 95.34912109 C172.4736231 102.00941814 172.49382044 108.66897976 172.52302456 115.32923698 C172.54139307 120.45772657 172.54109264 125.58608919 172.53538704 130.71460342 C172.53523388 133.16973743 172.54127397 135.62488008 172.55367851 138.07998276 C172.56859662 141.51703669 172.55790375 144.95311286 172.54077148 148.39013672 C172.55043945 149.39923096 172.56010742 150.4083252 172.57006836 151.44799805 C172.50605156 157.59774053 171.84782773 162.50834147 168.0390625 167.484375 C166.6985341 168.38743828 165.33216124 169.25295452 163.94643116 170.08499527 C161.56523349 171.8323018 160.26303428 172.83175223 159.29715329 175.64619577 C159.01938506 178.31138858 158.99335819 180.87683698 159.05252075 183.55606079 C159.04301293 184.56700251 159.03350511 185.57794423 159.02370918 186.61952055 C159.00150863 190.00601889 159.03630463 193.38951893 159.07080078 196.77587891 C159.06646898 199.20374906 159.05859443 201.63161511 159.04743958 204.0594635 C159.03118422 209.28651165 159.03922791 214.5129241 159.06915665 219.73988724 C159.1122343 227.30144182 159.10920487 234.8624356 159.09464405 242.42407338 C159.0720708 254.69851333 159.08365661 266.97266681 159.11816406 279.24707031 C159.15155193 291.15886781 159.17386227 303.07057556 159.17773438 314.98242188 C159.17797997 315.71637183 159.17822557 316.45032178 159.17847861 317.20651264 C159.18083148 325.21792417 159.17994959 333.22933257 159.1765728 341.24074364 C159.17628866 341.94465803 159.17600452 342.64857242 159.17571177 343.37381756 C159.17335552 349.16759667 159.17335552 349.16759667 159.17196475 351.81518202 C159.16779711 360.05464586 159.17355229 368.29397003 159.19697206 376.53340398 C159.21329486 382.30911772 159.22082322 388.08481414 159.22533226 393.86054802 C159.22904756 396.23256557 159.23626413 398.60458052 159.24718285 400.97657585 C159.26172382 404.20666301 159.26417634 407.43654195 159.26370239 410.66665649 C159.27109408 411.61197664 159.27848578 412.55729678 159.28610146 413.53126299 C159.28230361 414.82825706 159.28230361 414.82825706 159.27842903 416.15145302 C159.28048729 416.89700907 159.28254555 417.64256513 159.28466618 418.41071379 C159.00314982 420.78759004 158.21671108 422.41706627 157.0390625 424.484375 C157.9770166 424.46866455 158.9149707 424.4529541 159.88134766 424.43676758 C163.38140455 424.38545535 166.8810582 424.34793628 170.38134766 424.31958008 C171.89247977 424.30454957 173.40356868 424.28411936 174.91455078 424.25805664 C177.09418437 424.22141811 179.27323825 424.20459162 181.453125 424.19140625 C182.7623291 424.1756958 184.0715332 424.15998535 185.42041016 424.14379883 C190.12948923 424.58700253 193.49616696 425.97409882 196.88671875 429.29296875 C199.70648819 434.65530996 198.67370254 441.74861032 197.34765625 447.46484375 C193.60072644 458.58021295 186.96194864 467.89675328 176.53725147 473.55212975 C169.03693735 476.80299459 160.66935788 476.04206903 152.65007019 476.00576782 C150.7616903 476.01181239 148.8733153 476.01959213 146.98494893 476.02895296 C141.80644493 476.04951108 136.62821789 476.04514993 131.44969118 476.03659177 C125.86058021 476.03165693 120.27153589 476.04968606 114.68244934 476.06466675 C103.73676959 476.09016423 92.79118795 476.09374769 81.8454835 476.08906622 C72.94800137 476.08549987 64.05054902 476.08899915 55.15307045 476.09751511 C53.88663909 476.09870548 52.62020772 476.09989586 51.31539965 476.10112231 C48.74261623 476.10354582 46.16983281 476.10597409 43.59704939 476.10840707 C26.32278696 476.12398103 9.04853883 476.13182012 -8.22572803 476.12377357 C-8.90098127 476.12346082 -9.5762345 476.12314807 -10.27194996 476.12282584 C-13.69423657 476.12121433 -17.11652314 476.11952278 -20.53880969 476.11779924 C-21.55828611 476.11728597 -21.55828611 476.11728597 -22.598358 476.11676234 C-23.97277678 476.11606903 -25.34719556 476.11537197 -26.72161434 476.11467117 C-48.10492077 476.1039581 -69.48806223 476.11981544 -90.87133789 476.15673828 C-114.90785301 476.19819412 -138.94425198 476.21955849 -162.98081511 476.21158731 C-175.70311302 476.20776251 -188.42526063 476.21274575 -201.14753151 476.24101639 C-211.97853553 476.2648409 -222.80929677 476.26765748 -233.64030413 476.24343605 C-239.1649131 476.2316561 -244.68907796 476.2294655 -250.21365738 476.25344086 C-255.2751173 476.27515085 -260.33576213 476.26896267 -265.39718386 476.24091749 C-267.22416835 476.2356213 -269.05121664 476.24036415 -270.87813852 476.25638922 C-283.07724151 476.35593342 -292.0598083 475.03982947 -301.92578125 467.09765625 C-309.34574331 458.44348268 -314.02094579 449.54189239 -314.2734375 438.046875 C-314.31082031 436.93441406 -314.34820312 435.82195312 -314.38671875 434.67578125 C-313.86272924 430.74826354 -312.79229189 429.21926076 -309.9609375 426.484375 C-305.76278321 424.31085247 -302.1559156 424.25174569 -297.47265625 424.2890625 C-296.4178582 424.29330734 -296.4178582 424.29330734 -295.3417511 424.29763794 C-293.11046858 424.30877349 -290.87959733 424.33386503 -288.6484375 424.359375 C-287.12956312 424.3694134 -285.6106824 424.37853774 -284.09179688 424.38671875 C-280.38137829 424.40869087 -276.67119808 424.44317453 -272.9609375 424.484375 C-273.44789183 423.64757843 -273.44789183 423.64757843 -273.94468361 422.79387689 C-275.0980623 420.17275013 -275.21456857 418.38702451 -275.22099972 415.53234482 C-275.22806531 414.52957968 -275.2351309 413.52681455 -275.2424106 412.4936626 C-275.23999552 411.39406876 -275.23758043 410.29447492 -275.23509216 409.16156006 C-275.24294718 407.40693101 -275.24294718 407.40693101 -275.25096089 405.61685491 C-275.26338138 402.36904732 -275.26680406 399.12137367 -275.26636398 395.87354684 C-275.26801162 392.37102543 -275.28107717 388.86854351 -275.29255676 385.36604309 C-275.31541054 377.70689674 -275.32332784 370.04777808 -275.32838321 362.38860226 C-275.33163992 357.60577672 -275.33816227 352.82295923 -275.3453846 348.04013824 C-275.36495136 334.79672377 -275.38135501 321.55331679 -275.38426113 308.30988693 C-275.3844487 307.46233548 -275.38463627 306.61478403 -275.38482952 305.74154921 C-275.38519577 304.02336613 -275.38555947 302.30518306 -275.38592064 300.58699998 C-275.38619485 299.30764349 -275.38619485 299.30764349 -275.38647461 298.00244141 C-275.38665516 297.14849546 -275.38683571 296.29454951 -275.38702173 295.41472641 C-275.39056313 281.57871547 -275.41758299 267.74286019 -275.4549725 253.90690324 C-275.49305647 239.70021373 -275.51241862 225.49360145 -275.51272064 211.28685975 C-275.51330521 203.3108901 -275.52179658 195.33510612 -275.55071831 187.35918427 C-275.5752335 180.5672502 -275.58251432 173.7755695 -275.56747078 166.98360315 C-275.56030215 163.51919297 -275.5611562 160.0552831 -275.58388138 156.59092903 C-275.60426191 152.83188941 -275.59383468 149.07414699 -275.57566833 145.31512451 C-275.5888683 144.22445356 -275.60206827 143.13378261 -275.61566824 142.01006103 C-275.53167997 134.40443684 -273.81793004 129.45001767 -268.48287004 123.9646709 C-262.65396916 118.77397734 -257.58373651 118.19226147 -250.1315918 118.25732422 C-249.25304031 118.25703217 -248.37448883 118.25674011 -247.46931458 118.25643921 C-244.57449357 118.25782905 -241.67993212 118.27337404 -238.78515625 118.2890625 C-236.77448161 118.29279386 -234.76380516 118.29564025 -232.75312805 118.29763794 C-227.46771197 118.30526472 -222.18240625 118.32490508 -216.89703369 118.3470459 C-211.50103244 118.36752485 -206.10501331 118.37664404 -200.70898438 118.38671875 C-190.12625366 118.40815182 -179.54360477 118.4422763 -168.9609375 118.484375 C-168.76431519 117.86690903 -168.56769287 117.24944305 -168.3651123 116.61326599 C-168.10218384 115.80301468 -167.83925537 114.99276337 -167.56835938 114.15795898 C-167.30986206 113.35486801 -167.05136475 112.55177704 -166.78503418 111.72434998 C-165.75541287 108.92573906 -164.35356681 106.84210309 -162.4609375 104.546875 C-161.873125 103.81597656 -161.2853125 103.08507812 -160.6796875 102.33203125 C-158.9609375 100.484375 -158.9609375 100.484375 -155.9609375 98.484375 C-155.65863459 95.82445466 -155.54398857 93.38549513 -155.5546875 90.72265625 C-155.53843323 89.54838326 -155.53843323 89.54838326 -155.52185059 88.35038757 C-155.48751483 85.83246854 -155.47201676 83.3149972 -155.4609375 80.796875 C-155.33562183 53.0939397 -149.52212823 30.10765063 -129.37841797 9.87597656 C-98.64037866 -20.30087912 -34.77057959 -26.87447187 0 0 Z " fill="#020303" transform="translate(313.9609375,36.515625)"/>
<path d="M0 0 C1.30134636 -0.02125443 1.30134636 -0.02125443 2.62898254 -0.04293823 C3.57293884 -0.0379834 4.51689514 -0.03302856 5.48945618 -0.02792358 C6.99020439 -0.04325638 6.99020439 -0.04325638 8.52127075 -0.05889893 C11.83293009 -0.0867256 15.14375816 -0.08477404 18.45552063 -0.08016968 C20.75995188 -0.08794403 23.06438026 -0.09661346 25.36880493 -0.10614014 C30.20338721 -0.12107365 35.03767747 -0.12047737 39.87226868 -0.10995483 C46.05518615 -0.09838869 52.23690083 -0.13216433 58.41961956 -0.17864418 C63.18189436 -0.20817868 67.9438819 -0.20985385 72.70623207 -0.20362473 C74.98471768 -0.20464898 77.26321983 -0.21508387 79.54161644 -0.23524857 C82.73725081 -0.2600508 85.93057481 -0.24635413 89.12617493 -0.22323608 C90.06001007 -0.23852356 90.99384521 -0.25381104 91.95597839 -0.26956177 C98.15833939 -0.17087263 101.78984799 1.35631013 106.73280048 5.10689735 C111.43870308 8.61307223 116.97761534 8.9365287 122.63130188 9.52139282 C122.97741516 10.93678345 122.97741516 10.93678345 123.33052063 12.38076782 C126.50385395 25.0227848 130.47257752 36.1515856 138.63130188 46.52139282 C139.20364563 47.27033813 139.77598938 48.01928345 140.36567688 48.79092407 C143.34657091 52.42786956 146.24795686 55.37415891 150.25239563 57.84951782 C160.13312473 63.9669303 160.13312473 63.9669303 161.67036438 68.76358032 C161.83149695 75.1063442 160.74052582 81.51121604 156.63130188 86.52139282 C141.89168744 99.85878106 122.4992718 104.14436796 103.63130188 108.33389282 C100.10655606 109.13373712 96.58383333 109.94108882 93.06343079 110.75984192 C90.8979127 111.26181041 88.72975773 111.75260634 86.55854797 112.22935486 C73.89931365 115.12340815 63.85247501 118.89766945 56.10395813 129.63858032 C50.59302725 139.38254507 51.1827814 151.64803263 50.63130188 162.52139282 C50.59325439 163.2686261 50.55520691 164.01585937 50.51600647 164.78573608 C49.9376374 176.18188722 49.9376374 176.18188722 49.41572571 187.58071899 C48.85297499 199.9705211 47.75751705 212.13302596 46.63130188 224.52139282 C28.48130188 224.52139282 10.33130188 224.52139282 -8.36869812 224.52139282 C-8.4589236 195.90603471 -8.53263657 167.29079142 -8.57594681 138.6753273 C-8.59658925 125.38925598 -8.624742 112.10330097 -8.67045593 98.81729126 C-8.71027214 87.23985919 -8.73611869 75.66249557 -8.7450521 64.08499694 C-8.75027566 57.95238383 -8.76258799 51.81996654 -8.79161835 45.68741608 C-8.81870492 39.91891791 -8.82715675 34.15069683 -8.82112885 28.38214111 C-8.82223211 26.26168056 -8.83022595 24.14121104 -8.84552002 22.02080536 C-8.86534197 19.1316804 -8.86066567 16.24360964 -8.84971619 13.35446167 C-8.86136755 12.51010441 -8.87301892 11.66574715 -8.88502336 10.79580331 C-8.84822478 7.21809627 -8.68527676 4.97535093 -6.61167812 2.00191307 C-4.13887124 0.36969136 -2.93231704 0.01601922 0 0 Z " fill="#6FD5F7" transform="translate(57.36869812011719,188.47860717773438)"/>
<path d="M0 0 C5.75 1.875 5.75 1.875 8 3 C10.23563725 3.11073833 12.47457716 3.1565629 14.71289062 3.17358398 C15.4024736 3.180271 16.09205658 3.18695801 16.80253601 3.19384766 C18.30141934 3.20790648 19.80032419 3.21979789 21.29924011 3.22979546 C23.66917764 3.24618314 26.03895509 3.26941849 28.40881348 3.29469299 C35.14729875 3.36554081 41.88584848 3.42567943 48.62451172 3.47680664 C52.74418609 3.50854348 56.86367526 3.54980223 60.98320007 3.59700203 C62.55568624 3.61305079 64.12821507 3.62535902 65.70075989 3.63390923 C67.89640184 3.6460217 70.09160568 3.67015223 72.28710938 3.69702148 C74.16335999 3.71248268 74.16335999 3.71248268 76.07751465 3.72825623 C79 4 79 4 81 6 C81.28710938 8.64208984 81.28710938 8.64208984 81.34375 11.9609375 C81.37339844 13.15460938 81.40304687 14.34828125 81.43359375 15.578125 C81.45550781 16.83109375 81.47742188 18.0840625 81.5 19.375 C81.54340304 21.84131387 81.59513299 24.30749901 81.65625 26.7734375 C81.68428711 28.41965088 81.68428711 28.41965088 81.71289062 30.09912109 C81.99787106 32.97848979 82.39806947 34.61521649 84 37 C87.76875875 39.51250583 89.53150134 39.53016086 94 39 C98.44219478 35.74874216 101.75331083 32.08005093 105.0625 27.6875 C106.02070958 26.45953884 106.97904852 25.23167861 107.9375 24.00390625 C110.09245243 21.21321493 112.17948109 18.38108574 114.25 15.52734375 C115.35360343 14.0594722 116.45775912 12.59201568 117.5625 11.125 C118.05564697 10.41690186 118.54879395 9.70880371 119.05688477 8.97924805 C120.56640625 7.0078125 120.56640625 7.0078125 124 4 C127.3 4 130.6 4 134 4 C134 70.66 134 137.32 134 206 C115.85 206 97.7 206 79 206 C78.26967546 202.34837731 77.82054095 199.24674277 77.64282227 195.58081055 C77.58929092 194.51746994 77.53575958 193.45412933 77.48060608 192.35856628 C77.39932716 190.64000175 77.39932716 190.64000175 77.31640625 188.88671875 C77.25597641 187.68553909 77.19554657 186.48435944 77.13328552 185.2467804 C76.87581326 180.12776348 76.62676386 175.00834726 76.37768555 169.88891602 C75.7353732 156.77978901 75.06359729 143.67388427 74.0703125 130.5859375 C74.00352798 129.61496628 73.93674347 128.64399506 73.86793518 127.64360046 C73.06244528 117.71532679 69.71877202 109.24593409 62.05053711 102.50634766 C55.12632743 97.41974524 45.81114903 95.73238136 37.625 93.6875 C36.45815674 93.38682617 35.29131348 93.08615234 34.08911133 92.77636719 C28.0062969 91.21798369 21.91479886 89.74169813 15.78515625 88.37890625 C4.18507655 85.75140874 -6.67850312 82.79538496 -17.375 77.5 C-18.26614502 77.06139648 -19.15729004 76.62279297 -20.07543945 76.17089844 C-26.44403746 72.80420596 -30.96368911 68.91505011 -34.3125 62.4765625 C-35.89214796 56.78623974 -36.53456121 51.77168973 -35 46 C-32.18920823 42.49510344 -28.36450154 40.16328711 -24.69140625 37.6484375 C-13.20842237 29.75918604 -6.57278756 16.32646907 -1.98046875 3.58984375 C-1 1 -1 1 0 0 Z " fill="#6FD4F7" transform="translate(329,207)"/>
<path d="M0 0 C1.08929306 -0.00852997 2.17858612 -0.01705994 3.30088806 -0.02584839 C4.49627197 -0.02494202 5.69165588 -0.02403564 6.92326355 -0.02310181 C8.81141029 -0.03317764 8.81141029 -0.03317764 10.73770142 -0.04345703 C14.19238131 -0.06113637 17.64696215 -0.06581328 21.1016829 -0.0670886 C23.26078907 -0.06850995 25.41987004 -0.07277928 27.57896996 -0.07808304 C35.11367263 -0.09659144 42.64830452 -0.10475286 50.18302917 -0.10317993 C57.20233701 -0.10197909 64.22133706 -0.12306779 71.24056703 -0.15466726 C77.26956082 -0.18083985 83.29845418 -0.19154678 89.32750434 -0.19026911 C92.92716421 -0.18975965 96.52655074 -0.19543308 100.12615395 -0.21662521 C104.14337223 -0.23962953 108.15990379 -0.23048081 112.1771698 -0.21841431 C113.36648102 -0.22965332 114.55579224 -0.24089233 115.78114319 -0.25247192 C122.01840851 -0.20480701 126.1145243 -0.12504916 130.74430847 4.26742554 C132.50672033 7.1711101 132.99593158 9.32371366 133.00500488 12.70100403 C133.01208969 13.58276306 133.0191745 14.46452209 133.026474 15.3730011 C133.02399658 16.33259232 133.02151917 17.29218353 133.01896667 18.28085327 C133.02407761 19.29753082 133.02918854 20.31420837 133.03445435 21.36169434 C133.04836267 24.72486241 133.04739265 28.08782586 133.04508972 31.45101929 C133.04897588 33.78745093 133.05331039 36.12388187 133.05807495 38.46031189 C133.06553978 43.35868621 133.06524389 48.25698847 133.0599823 53.15536499 C133.05418653 59.43473031 133.07112025 65.71380078 133.09432697 71.99311733 C133.10905331 76.81865669 133.10993751 81.64412485 133.10681725 86.46968269 C133.10733098 88.7849492 133.1125785 91.10021965 133.12262917 93.4154644 C133.13495501 96.65203939 133.12822472 99.88803763 133.11662292 103.12460327 C133.12426666 104.08217026 133.1319104 105.03973724 133.13978577 106.02632141 C133.10110954 110.90380214 132.9997352 114.35298231 129.74430847 118.26742554 C124.58771031 121.69266589 119.62660133 121.70127677 113.66618347 121.70687866 C108.47607486 121.85049808 105.6996077 122.93525756 101.74430847 126.26742554 C99.33014681 128.82502063 97.12367879 131.51848014 94.93180847 134.26742554 C94.32304871 135.01693481 93.71428894 135.76644409 93.08708191 136.53866577 C88.6912542 141.9834714 84.48246929 147.54575296 80.41618347 153.24008179 C79.86446472 153.90910522 79.31274597 154.57812866 78.74430847 155.26742554 C78.08430847 155.26742554 77.42430847 155.26742554 76.74430847 155.26742554 C76.71457947 154.17071533 76.71457947 154.17071533 76.68424988 153.05184937 C76.58877933 149.72752284 76.47918881 146.40380567 76.36930847 143.07992554 C76.33837097 141.92943726 76.30743347 140.77894897 76.27555847 139.59359741 C76.2368866 138.48178101 76.19821472 137.3699646 76.15837097 136.22445679 C76.12695007 135.20327759 76.09552917 134.18209839 76.06315613 133.12997437 C75.73039097 130.1424771 75.1174285 127.93770954 73.74430847 125.26742554 C71.25396461 123.9708212 71.25396461 123.9708212 68.74430847 123.26742554 C68.41430847 122.93742554 68.08430847 122.60742554 67.74430847 122.26742554 C65.53697685 122.16440452 63.3263489 122.13168798 61.11662292 122.12557983 C60.42385757 122.12210541 59.73109222 122.11863098 59.01733398 122.11505127 C57.50751873 122.10768108 55.99769254 122.10234246 54.48786354 122.0987606 C52.09589431 122.09160932 49.70413194 122.07595127 47.31222534 122.05741882 C40.50942394 122.00489888 33.70673188 121.95700358 26.9037323 121.9414978 C22.74616165 121.93139899 18.58910516 121.90202127 14.4317379 121.86017799 C12.84860822 121.84788407 11.26540583 121.84274381 9.68223 121.84497643 C7.46058776 121.84733745 5.24041046 121.82510349 3.01896667 121.79745483 C1.75623428 121.79158859 0.49350189 121.78572235 -0.80749512 121.77967834 C-4.95354423 121.16375482 -7.07862056 119.97934498 -10.25569153 117.26742554 C-13.11913659 112.78542332 -12.55115603 107.39611269 -12.54621887 102.24813843 C-12.5529361 101.24267471 -12.55965332 100.237211 -12.5665741 99.20127869 C-12.58555677 95.88082933 -12.58947825 92.56058201 -12.59162903 89.24008179 C-12.598056 86.92989519 -12.60478429 84.61970942 -12.61180115 82.30952454 C-12.62377405 77.46840528 -12.62748187 72.62735739 -12.626297 67.78622437 C-12.62609364 61.58426149 -12.65341381 55.38275596 -12.68784142 49.18090153 C-12.71008082 44.41022134 -12.71413546 39.63965181 -12.71307755 34.86892509 C-12.71543726 32.58238585 -12.72428158 30.29584373 -12.73974228 28.00935555 C-12.75934474 24.81128007 -12.75358655 21.61419877 -12.74153137 18.41610718 C-12.75277039 17.47305725 -12.7640094 16.53000732 -12.77558899 15.55838013 C-12.72207613 9.96981985 -12.05917934 6.65907241 -8.25569153 2.26742554 C-4.92693847 0.04825683 -3.88005196 0.01371652 0 0 Z " fill="#D8E4EF" transform="translate(343.2556915283203,79.73257446289063)"/>
<path d="M0 0 C2.34775604 1.29630702 4.30848402 2.54557962 6.4375 4.125 C22.53933644 15.29023343 41.18814248 18.2572703 60.4765625 15.66748047 C65.10067016 14.7984463 69.53546157 13.4899039 74 12 C75.37478516 11.566875 75.37478516 11.566875 76.77734375 11.125 C82.91782539 8.95206495 87.84802111 5.50380907 93.04296875 1.609375 C96.68927818 -0.37514215 98.90452045 -0.54638068 103 0 C105.07421875 1.43359375 105.07421875 1.43359375 106.6875 3.4375 C107.22761719 4.07558594 107.76773438 4.71367188 108.32421875 5.37109375 C114.29937841 14.74471252 114.59389721 23.14547344 114.53125 33.9765625 C114.53395108 35.631706 114.5378386 37.28684795 114.54284668 38.94198608 C114.5487227 42.40337296 114.54024717 45.86434521 114.52148438 49.32568359 C114.49880329 53.71973921 114.51176041 58.11281137 114.53577423 62.50683022 C114.55037632 65.92511105 114.54555931 69.34316713 114.53526306 72.76145554 C114.5326297 74.37905372 114.53574332 75.99667358 114.54518127 77.61424637 C114.64023246 98.49579562 108.98253589 116.66794928 94 132 C87.01894402 138.13110525 79.71957222 142.79496805 71 146 C69.94296875 146.391875 68.8859375 146.78375 67.796875 147.1875 C51.95775987 152.39488032 35.72255826 151.04448996 20.49609375 144.4921875 C5.62462759 136.94232864 -5.15703405 126.4647567 -12.375 111.5 C-12.70910889 110.81228516 -13.04321777 110.12457031 -13.38745117 109.41601562 C-18.36108911 98.54954489 -18.3252345 87.44024149 -18.3359375 75.71484375 C-18.34237775 74.0467569 -18.34910699 72.37867114 -18.35610962 70.71058655 C-18.36802373 67.23012676 -18.37179619 63.74976582 -18.37060547 60.26928711 C-18.37040185 55.82878521 -18.39777475 51.38892015 -18.43214989 46.9485693 C-18.45447027 43.50913117 -18.45844155 40.06984559 -18.45738602 36.63034248 C-18.45973151 34.99380854 -18.46849517 33.35726972 -18.48405075 31.72080803 C-18.62457717 15.4215405 -18.62457717 15.4215405 -14 8 C-13.65633392 7.41053085 -13.31266785 6.82106171 -12.95858765 6.21372986 C-9.49035264 0.60514844 -6.5071444 -0.67055747 0 0 Z " fill="#F7CEB3" transform="translate(207,104)"/>
<path d="M0 0 C54.78 0 109.56 0 166 0 C167.98 4.95 167.98 4.95 170 10 C175.04287061 15.04287061 178.06730921 17.11482273 185.28019714 17.14717102 C186.37501404 17.15432632 187.46983093 17.16148163 188.5978241 17.16885376 C190.40021294 17.17288712 190.40021294 17.17288712 192.23901367 17.17700195 C194.13697189 17.18685875 194.13697189 17.18685875 196.07327271 17.19691467 C200.27149186 17.21793907 204.4697113 17.22831706 208.66796875 17.23828125 C210.11496817 17.24232972 211.56196741 17.24644667 213.00896645 17.25063133 C219.8091777 17.26968121 226.60937812 17.2839114 233.40961093 17.2922433 C241.24966864 17.30200862 249.08944349 17.32831027 256.92940158 17.36874419 C262.99493207 17.39894884 269.0603817 17.41371637 275.12598592 17.41702431 C278.74584815 17.4193703 282.36540814 17.42827097 285.98518944 17.45348549 C290.0283105 17.48119363 294.07080357 17.47692186 298.11401367 17.4699707 C299.90122078 17.48918579 299.90122078 17.48918579 301.72453308 17.50878906 C309.68940007 17.45891461 315.39300744 16.50950628 321.3125 10.75 C323.55596012 7.28979939 323.55596012 7.28979939 326 0 C380.78 0 435.56 0 492 0 C490.93844358 9.55400781 488.91623333 17.93733156 481.5 24.5625 C476.09933418 28.81155326 471.04824698 30.44533103 464.22500801 30.38031673 C463.45733681 30.38497665 462.68966561 30.38963657 461.89873165 30.3944377 C459.32319316 30.40640029 456.74818096 30.3969875 454.17263794 30.38768005 C452.30874812 30.39185242 450.44486083 30.3973294 448.58097827 30.40399987 C443.45641745 30.41848599 438.33201702 30.41419984 433.20744729 30.40683305 C427.68177027 30.4021115 422.15612846 30.41460227 416.63046265 30.42485046 C405.80403454 30.44206387 394.97766441 30.44287318 384.15122618 30.43763756 C375.352804 30.43359925 366.55439898 30.43503539 357.75597763 30.44038582 C355.87896679 30.44150845 355.87896679 30.44150845 353.96403655 30.44265376 C351.4220876 30.44418521 348.88013865 30.44572356 346.33818971 30.44726873 C329.26587944 30.45710054 312.19357499 30.46125805 295.1212635 30.45364285 C294.45360851 30.45334567 293.78595352 30.4530485 293.09806655 30.45274232 C287.67618226 30.45029336 282.25429804 30.44768179 276.83241383 30.44505819 C255.68463245 30.43495635 234.53693047 30.44330953 213.38916016 30.46655273 C189.62995977 30.49262386 165.87080068 30.50542408 142.11158168 30.49836498 C129.53136472 30.4948689 116.95121297 30.49713046 104.37100601 30.51461601 C93.66136163 30.52931673 82.95182836 30.53000133 72.2421862 30.5125451 C66.77691467 30.50401509 61.31184183 30.5019344 55.84658051 30.51719666 C50.84396088 30.5309941 45.84171107 30.52634428 40.8391131 30.50695742 C39.02893438 30.50318189 37.21872639 30.50616389 35.40857364 30.51656907 C32.94749487 30.52971044 30.48769789 30.51818205 28.02667427 30.50057125 C27.32424133 30.51022176 26.62180838 30.51987227 25.89808959 30.52981523 C19.60526851 30.43738683 14.58966552 28.17513273 9.828125 24.17578125 C3.13211573 16.26984952 1.16161036 10.45449322 0 0 Z " fill="#EBF2FA" transform="translate(10,472)"/>
<path d="M0 0 C6.2389246 5.83396397 9.83111615 13.45741327 10.5 21.9375 C10.52320313 23.236875 10.52320313 23.236875 10.546875 24.5625 C10.77244778 27.1999664 11.30089127 28.73024829 12.75 30.9375 C15.7834467 32.70477858 15.7834467 32.70477858 18.75 33.9375 C18.440625 34.700625 18.13125 35.46375 17.8125 36.25 C16.06131515 40.67946755 15.49282669 44.3706273 15.1875 49.125 C15.10371094 50.39730469 15.01992188 51.66960937 14.93359375 52.98046875 C14.87300781 53.95628906 14.81242188 54.93210937 14.75 55.9375 C14.22792969 55.5765625 13.70585937 55.215625 13.16796875 54.84375 C8.13176838 51.66856238 3.83587243 49.92328735 -2.16796875 50.18359375 C-7.57092574 51.50522962 -11.90953258 54.61379472 -16.53515625 57.609375 C-31.01958845 66.92907679 -48.49865703 69.17265506 -65.3671875 66.61669922 C-69.16739721 65.79191742 -72.69316144 64.48856454 -76.25 62.9375 C-77.136875 62.55207031 -78.02375 62.16664062 -78.9375 61.76953125 C-84.05808383 59.35754893 -88.71613548 56.4277712 -93.33984375 53.171875 C-97.93630044 50.20156761 -102.97532471 50.28601481 -108.25 50.9375 C-115.90837207 53.49484924 -119.69412621 60.08984914 -123.25 66.9375 C-125.86833974 72.82636666 -126.74247732 78.54271418 -127.25 84.9375 C-132.2 85.4325 -132.2 85.4325 -137.25 85.9375 C-137.95457367 58.36428053 -136.81583808 34.38389921 -117.25 12.9375 C-116.73308594 12.3290625 -116.21617187 11.720625 -115.68359375 11.09375 C-90.49922221 -16.67848929 -29.82243367 -23.05223766 0 0 Z " fill="#744D33" transform="translate(306.25,44.0625)"/>
<path d="M0 0 C11.29178738 2.23888888 22.50447849 4.76870008 33.6875 7.5 C34.88020508 7.78431885 36.07291016 8.0686377 37.30175781 8.36157227 C53.39748878 12.34916127 53.39748878 12.34916127 58.875 18.875 C59.42929687 19.51179688 59.98359375 20.14859375 60.5546875 20.8046875 C64.4374643 26.70231064 64.50541238 33.1620833 64.9375 40 C65.01468262 41.12978271 65.09186523 42.25956543 65.17138672 43.42358398 C65.34927955 46.05288093 65.5237479 48.68221583 65.69384766 51.31201172 C65.98113319 55.74086695 66.28230621 60.1687232 66.58442688 64.59658813 C66.86502817 68.71873953 67.14177673 72.84114348 67.41751099 76.96362305 C67.55500125 79.01705911 67.69323668 81.07044543 67.83224487 83.1237793 C68.0296212 86.05235539 68.22242933 88.98119938 68.4140625 91.91015625 C68.50297005 93.21364769 68.50297005 93.21364769 68.59367371 94.54347229 C68.97066319 100.39987534 69 106.1041151 69 112 C56.13 112 43.26 112 30 112 C29.93941406 108.18566406 29.87882812 104.37132812 29.81640625 100.44140625 C29.75467378 96.76454571 29.69126252 93.08771772 29.62768555 89.41088867 C29.58425934 86.84711579 29.54259015 84.28331254 29.50268555 81.71948242 C29.44516853 78.04336372 29.38142137 74.36739901 29.31640625 70.69140625 C29.29969376 69.53725723 29.28298126 68.38310822 29.26576233 67.19398499 C29.2358445 65.6024485 29.2358445 65.6024485 29.20532227 63.97875977 C29.18200584 62.56978172 29.18200584 62.56978172 29.15821838 61.13233948 C29.23454841 59.01693335 29.23454841 59.01693335 28 58 C26.02 58 24.04 58 22 58 C21.67 75.82 21.34 93.64 21 112 C-7.71 112 -36.42 112 -66 112 C-62.56872211 108.56872211 -59.13335552 105.14218759 -55.69067383 101.72241211 C-50.57384845 96.63815684 -45.46202559 91.54890363 -40.35309315 86.45671749 C-37.2690262 83.38312357 -34.18309924 80.31144429 -31.09301758 77.24389648 C-28.09380263 74.26640359 -25.09949317 71.28405804 -22.10852623 68.29828072 C-20.97039277 67.16383791 -19.83050261 66.03115466 -18.68882179 64.90028191 C-17.09490638 63.32087723 -15.50735276 61.73533109 -13.92114258 60.14819336 C-13.01689041 59.24838242 -12.11263824 58.34857147 -11.1809845 57.42149353 C-8.45781317 54.39802327 -7.17733697 52.28938757 -6.625 48.2734375 C-7.13398261 43.83044346 -8.90865067 40.53214925 -11 36.625 C-11.3815625 35.88894531 -11.763125 35.15289062 -12.15625 34.39453125 C-13.09331735 32.5906766 -14.04519207 30.79452741 -15 29 C-13.89591797 28.51080078 -13.89591797 28.51080078 -12.76953125 28.01171875 C-11.79371094 27.57472656 -10.81789063 27.13773437 -9.8125 26.6875 C-8.84957031 26.25824219 -7.88664062 25.82898438 -6.89453125 25.38671875 C-1.60661927 23.12763589 -1.60661927 23.12763589 2 19 C1.93631385 16.85756987 1.93631385 16.85756987 1.625 14.4375 C1.53476562 13.63183594 1.44453125 12.82617188 1.3515625 11.99609375 C1.23554688 11.00738281 1.11953125 10.01867187 1 9 C0.81945213 7.38681481 0.63981471 5.77352754 0.4609375 4.16015625 C0.33017822 2.98078491 0.33017822 2.98078491 0.19677734 1.77758789 C0.13184082 1.19098389 0.0669043 0.60437988 0 0 Z " fill="#D6E2ED" transform="translate(329,301)"/>
<path d="M0 0 C-0.144375 1.27875 -0.28875 2.5575 -0.4375 3.875 C-0.56318359 5.10089844 -0.56318359 5.10089844 -0.69140625 6.3515625 C-0.89791988 8.12391998 -1.15637694 9.89095431 -1.46484375 11.6484375 C-2.33008165 16.96648269 -2.33008165 16.96648269 -0.3125 21.8125 C4.48342012 24.97961706 9.63312582 26.98849213 15 29 C14.4225 30.08539063 13.845 31.17078125 13.25 32.2890625 C12.49936073 33.73404309 11.74939615 35.17937431 11 36.625 C10.42765625 37.69427734 10.42765625 37.69427734 9.84375 38.78515625 C7.6945152 42.96848827 6.15800736 46.19801074 7 51 C9.61238656 55.34547999 12.59391648 58.83854899 16.17993164 62.40698242 C16.68288254 62.91022537 17.18583344 63.41346832 17.70402527 63.93196106 C19.35136819 65.57792185 21.00566088 67.21670039 22.66015625 68.85546875 C23.81354327 70.00512003 24.96648538 71.15521782 26.1190033 72.30574036 C29.14326547 75.32239664 32.17348274 78.33300038 35.20501709 81.34234619 C38.2893841 84.40624062 41.36809156 87.4758102 44.44726562 90.54492188 C49.85772561 95.93627654 55.27308712 101.32266423 60.69203186 106.70549011 C62.46427256 108.4673965 64.23291891 110.23291891 66 112 C37.29 112 8.58 112 -21 112 C-21.33 94.18 -21.66 76.36 -22 58 C-23.98 58 -25.96 58 -28 58 C-29.66623578 59.66623578 -29.16740691 61.68758912 -29.20532227 63.97875977 C-29.22526749 65.03978409 -29.24521271 66.10080841 -29.26576233 67.19398499 C-29.29083107 68.92520851 -29.29083107 68.92520851 -29.31640625 70.69140625 C-29.33718735 71.86638168 -29.35796844 73.04135712 -29.37937927 74.25193787 C-29.44500124 78.02206324 -29.5038183 81.79226082 -29.5625 85.5625 C-29.6056732 88.11133573 -29.64928708 90.66016403 -29.69335938 93.20898438 C-29.8015284 99.47258319 -29.90050793 105.7362332 -30 112 C-42.87 112 -55.74 112 -69 112 C-69 105.96095477 -68.96450363 100.10852152 -68.62036133 94.10693359 C-68.57962494 93.38680588 -68.53888855 92.66667816 -68.49691772 91.92472839 C-68.07145476 84.49540653 -67.60664348 77.06833171 -67.13842773 69.64160156 C-66.91816208 66.12754852 -66.71041638 62.61308959 -66.51342773 59.09765625 C-66.27388648 54.82481716 -66.01233885 50.55384952 -65.73529625 46.28328323 C-65.63401067 44.6659484 -65.54031599 43.04811832 -65.4546299 41.42988205 C-64.92330462 31.5267327 -64.11429859 24.61272599 -57.15625 16.9765625 C-56.6096875 16.53054688 -56.063125 16.08453125 -55.5 15.625 C-54.9534375 15.16351563 -54.406875 14.70203125 -53.84375 14.2265625 C-49.74535465 11.50008763 -45.17254802 10.46117795 -40.4375 9.3125 C-39.03633427 8.97056006 -37.63530424 8.6280638 -36.234375 8.28515625 C-35.43193359 8.08937988 -34.62949219 7.89360352 -33.80273438 7.69189453 C-30.47414695 6.87018575 -27.15118218 6.02738624 -23.828125 5.18359375 C-21.94202515 4.70635864 -21.94202515 4.70635864 -20.01782227 4.21948242 C-17.4812574 3.57745941 -14.94527712 2.93312197 -12.40991211 2.28637695 C-11.2369458 1.99077881 -10.06397949 1.69518066 -8.85546875 1.390625 C-7.79996826 1.12282227 -6.74446777 0.85501953 -5.65698242 0.57910156 C-3 0 -3 0 0 0 Z " fill="#D6E2ED" transform="translate(183,301)"/>
<path d="M0 0 C0.99 0.33 1.98 0.66 3 1 C5.23035189 1.09412824 7.46349214 1.12554636 9.69582939 1.12584114 C10.72699429 1.1280213 10.72699429 1.1280213 11.77899081 1.13024551 C14.09949842 1.13391627 16.41994079 1.13041409 18.740448 1.12698364 C20.41414299 1.12813504 22.08783774 1.12972269 23.76153195 1.13171089 C28.37414661 1.13590174 32.9867407 1.13381459 37.59935546 1.13072467 C42.56877138 1.12846978 47.53818367 1.13195066 52.50759888 1.13470459 C62.24855665 1.13916051 71.98950673 1.13818655 81.7304648 1.13529195 C89.64558848 1.13303696 97.56070999 1.13272581 105.47583389 1.13381577 C106.60078047 1.133969 107.72572705 1.13412223 108.88476292 1.13428011 C111.16983166 1.13459982 113.45490041 1.13492404 115.73996915 1.1352527 C137.18792153 1.13810703 158.63586963 1.13482133 180.08382131 1.12945233 C198.49777755 1.12498555 216.91172747 1.12575928 235.32568359 1.13037109 C256.69185303 1.13571977 278.05801872 1.13783107 299.42418873 1.13475883 C301.70163735 1.13444027 303.97908596 1.1341259 306.25653458 1.13381577 C307.93749494 1.13358435 307.93749494 1.13358435 309.65241411 1.13334826 C317.55944392 1.1324839 325.46647137 1.13394429 333.37350082 1.13629532 C343.00765956 1.13909681 352.64181014 1.13834769 362.27596794 1.13301457 C367.1939599 1.13038212 372.11193825 1.12936482 377.02993011 1.13266373 C381.52907647 1.13563608 386.02819658 1.13401809 390.52734055 1.12868617 C392.1578806 1.12756601 393.78842286 1.12814436 395.41896151 1.13056196 C397.63016893 1.13358987 399.84128569 1.13049653 402.05248833 1.12584114 C403.89719855 1.12559761 403.89719855 1.12559761 405.77917564 1.12534916 C408.64788614 1.01370369 411.21390761 0.66373623 414 0 C414.45047923 8.85942492 414.45047923 8.85942492 411 13 C406.56909069 16.48037377 403.69199082 17.50084509 398.08117008 17.50895119 C397.06850472 17.51857062 397.06850472 17.51857062 396.03538147 17.52838439 C393.77454707 17.54497953 391.51477312 17.53313979 389.25392151 17.52139282 C387.61617919 17.52743451 385.97844251 17.53521281 384.34071583 17.54457796 C379.84126418 17.56517311 375.34213063 17.56076562 370.84265268 17.55221677 C365.98978305 17.54728866 361.13699064 17.56530257 356.28414917 17.58029175 C346.7775246 17.60580729 337.27101295 17.60937051 327.7643599 17.60469122 C320.03857695 17.60112716 312.31282832 17.60461923 304.58704948 17.61314011 C303.48806507 17.61433048 302.38908066 17.61552086 301.25679369 17.61674731 C299.02431401 17.61917078 296.79183433 17.62159904 294.55935466 17.62403207 C273.61729331 17.64579122 252.67529634 17.64145408 231.73323136 17.62926237 C212.56824293 17.61892199 193.40345776 17.64143874 174.23850954 17.67945881 C154.56588063 17.71818728 134.89334795 17.73473269 115.22068065 17.72721231 C104.17355247 17.72338406 93.12659733 17.72840426 82.0795002 17.75664139 C72.67558264 17.78043494 63.27194463 17.78331738 53.86802334 17.75906105 C49.06907621 17.74725958 44.27064082 17.7451493 39.47172737 17.76906586 C35.07898457 17.79070398 30.68718321 17.78467469 26.2944852 17.75654249 C24.70504902 17.75122633 23.11554 17.75605166 21.52617509 17.77201422 C8.17344538 17.89681738 8.17344538 17.89681738 3.57043362 14.14072227 C-0.52899792 9.87179487 -0.09151102 5.58217212 0 0 Z " fill="#386DBA" transform="translate(49,445)"/>
<path d="M0 0 C123.75 0 247.5 0 375 0 C375 9 375 9 372.89960414 12.02404755 C369.47289152 14.3592012 367.72468327 14.62220759 363.60633373 14.61523914 C362.30752213 14.62519439 361.00871052 14.63514963 359.67054099 14.64540654 C358.23105501 14.63114202 356.79157357 14.61641405 355.35209656 14.60127258 C353.82160062 14.60345286 352.29110649 14.60783059 350.76062232 14.61421841 C346.55309808 14.62541009 342.34620899 14.60538355 338.13876569 14.58032811 C333.60234232 14.55875839 329.06595546 14.56604106 324.52949524 14.56983948 C316.66919642 14.57246268 308.80910493 14.55676026 300.94885826 14.52865028 C289.58426311 14.48803441 278.21976834 14.47499502 266.85510848 14.46871033 C248.41726481 14.45776414 229.97953168 14.42448113 211.54174805 14.37719727 C193.62996982 14.33131008 175.71822161 14.29591404 157.80639648 14.2746582 C156.70252174 14.27334459 155.59864699 14.27203097 154.4613215 14.27067754 C148.92356849 14.26415241 143.38581528 14.25783386 137.84806192 14.25161803 C91.89863065 14.19977493 45.94932275 14.11132941 0 14 C0 9.38 0 4.76 0 0 Z " fill="#4F8BD3" transform="translate(88,423)"/>
<path d="M0 0 C7.3679046 21.81711068 14.5183221 43.70125311 21.5625 65.625 C21.95894714 66.85790771 22.35539429 68.09081543 22.76385498 69.36108398 C23.90773346 72.91997494 25.04995566 76.47939218 26.19140625 80.0390625 C26.53161301 81.09827911 26.87181976 82.15749573 27.22233582 83.24880981 C27.85596768 85.22837772 28.485933 87.20912432 29.11160278 89.19122314 C29.71019891 91.08375827 30.31921458 92.97302545 30.93795776 94.85906982 C31.36493454 96.19605927 31.36493454 96.19605927 31.80053711 97.56005859 C32.05620956 98.34545013 32.31188202 99.13084167 32.57530212 99.94003296 C33 102 33 102 32 105 C26.22822753 99.36717479 20.47278187 93.71837567 14.73752499 88.04839802 C12.07395703 85.41615915 9.40509185 82.78979603 6.72338867 80.17602539 C4.13614383 77.65391616 1.5637843 75.11747845 -0.99886894 72.57039452 C-1.97968927 71.60067093 -2.96578061 70.63624924 -3.95710945 69.67727089 C-5.34335026 68.33450176 -6.70943377 66.9710164 -8.07446289 65.60668945 C-8.85833878 64.83613724 -9.64221466 64.06558502 -10.44984436 63.27168274 C-12 61 -12 61 -11.84934998 58.404953 C-10.31725359 54.06678863 -7.7678366 50.2755871 -5.3984375 46.3515625 C-3.72394875 42.33840231 -3.88448886 40.16423842 -5 36 C-9.51700169 31.94628054 -15.37226575 30.09093683 -21 28 C-21.10158978 25.30787088 -21.0721141 22.68943176 -21 20 C-21.05027344 19.12085938 -21.10054687 18.24171875 -21.15234375 17.3359375 C-21.04106092 13.90068489 -20.70949138 12.01825412 -19 9 C-14.23903764 5.23420636 -6.2294321 0 0 0 Z " fill="#E8EFF7" transform="translate(212,289)"/>
<path d="M0 0 C16.66898046 5.4317455 16.66898046 5.4317455 19.44140625 10.78125 C20.93377565 16.4911851 21.33902737 22.12352552 21 28 C19.66195312 28.45439453 19.66195312 28.45439453 18.296875 28.91796875 C17.12640625 29.33691406 15.9559375 29.75585938 14.75 30.1875 C13.00976562 30.79658203 13.00976562 30.79658203 11.234375 31.41796875 C7.58638637 33.20231101 5.95392398 34.43962822 4 38 C4.04640427 44.72088485 7.26021063 49.39217243 10.6015625 55.01171875 C12 58 12 58 11.82575989 59.92712402 C10.74924885 62.62945179 9.25269294 64.10716146 7.1862793 66.15429688 C6.37841476 66.96193481 5.57055023 67.76957275 4.73820496 68.60168457 C3.85908951 69.46531616 2.97997406 70.32894775 2.07421875 71.21875 C1.17508255 72.11364136 0.27594635 73.00853271 -0.6504364 73.93054199 C-3.04219311 76.30834258 -5.4402192 78.67944274 -7.84155273 81.04754639 C-10.27407213 83.44948265 -12.6982315 85.85982218 -15.12304688 88.26953125 C-19.39884877 92.51582826 -23.68112597 96.75546983 -27.9691925 100.98937988 C-29.98615965 102.98629724 -31.99475355 104.99131933 -34 107 C-31.74974672 98.35606932 -29.02865384 89.93547505 -26.13671875 81.48828125 C-24.22427881 75.84025824 -22.44401667 70.16981873 -20.7890625 64.44140625 C-17.55667441 53.28483028 -13.97159518 42.23974132 -10.41455078 31.18334961 C-9.23578865 27.51831373 -8.06105615 23.85200261 -6.88671875 20.18554688 C-6.13825622 17.85409109 -5.38956692 15.52270809 -4.640625 13.19140625 C-4.28961731 12.09574844 -3.93860962 11.00009064 -3.57696533 9.87123108 C-3.25282654 8.86515305 -2.92868774 7.85907501 -2.59472656 6.82250977 C-2.31002502 5.93668716 -2.02532349 5.05086456 -1.73199463 4.13819885 C-1 2 -1 2 0 0 Z " fill="#E8EFF7" transform="translate(300,289)"/>
<path d="M0 0 C1.45080713 5.04880881 2.46706993 9.88006262 1 15 C-2.64613034 20.5638838 -7.92527617 24.77713831 -12.91796875 29.09326172 C-15.67223601 31.61563827 -18.07222979 34.36845627 -20.47460938 37.22290039 C-24.51212228 41.92665463 -24.51212228 41.92665463 -27.91015625 42.4375 C-31.74753546 41.89415427 -32.83875813 40.82285356 -35.4375 38 C-36.2109375 37.17371094 -36.984375 36.34742188 -37.78125 35.49609375 C-40.25202916 32.71646719 -42.7127599 29.93458679 -45.08984375 27.07421875 C-47.03280323 24.87132861 -47.03280323 24.87132861 -49.69140625 22.76953125 C-56.81247981 16.69829607 -56.81247981 16.69829607 -57.4140625 11.25 C-57.15340734 7.75581195 -56.72093367 4.4269039 -56 1 C-54.99324219 1.28875 -53.98648438 1.5775 -52.94921875 1.875 C-32.63650362 7.37325209 -19.0224512 0 0 0 Z " fill="#F5CCB1" transform="translate(284,258)"/>
<path d="M0 0 C0.85860626 -0.00014603 1.71721252 -0.00029205 2.60183716 -0.0004425 C5.44796246 0.00025576 8.29402281 0.00804414 11.14013672 0.01586914 C13.11025965 0.01773363 15.08038304 0.01915739 17.05050659 0.02015686 C22.24222081 0.02397963 27.43390716 0.03380788 32.62561035 0.04486084 C37.92081322 0.05508011 43.21602058 0.05965559 48.51123047 0.06469727 C58.90577398 0.07543035 69.30029678 0.09250391 79.69482422 0.11352539 C80.68482422 4.73352539 81.67482422 9.35352539 82.69482422 14.11352539 C33.68982422 14.60852539 33.68982422 14.60852539 -16.30517578 15.11352539 C-16.30517578 7.22357324 -16.30517578 7.22357324 -13.43017578 4.23852539 C-12.89650391 3.66360352 -12.36283203 3.08868164 -11.81298828 2.49633789 C-8.33074499 -0.69722202 -4.45624729 -0.01964195 0 0 Z " fill="#386EBB" transform="translate(65.30517578125,164.886474609375)"/>
<path d="M0 0 C46.2 0 92.4 0 140 0 C137.58812636 6.0296841 137.58812636 6.0296841 134 8 C131.52275181 8.38031673 131.52275181 8.38031673 128.69325256 8.38768005 C127.61796799 8.39758469 126.54268341 8.40748932 125.43481445 8.41769409 C124.26015625 8.41319244 123.08549805 8.4086908 121.87524414 8.40405273 C120.63423447 8.41091599 119.39322479 8.41777924 118.11460876 8.42485046 C114.71360704 8.44001816 111.31315328 8.44161186 107.91215825 8.43590808 C105.07167975 8.43281744 102.23125087 8.43890731 99.39077944 8.44494683 C92.68894443 8.45899373 85.98723689 8.45742959 79.28540039 8.44604492 C72.37452904 8.43456448 65.46404578 8.44863739 58.55322558 8.4754414 C52.6167824 8.49760301 46.680461 8.50423474 40.74397939 8.49836498 C37.19971419 8.49499513 33.65569774 8.49741194 30.11146736 8.51461601 C26.15887378 8.53296493 22.20675693 8.51889319 18.25415039 8.50170898 C17.08151642 8.51137695 15.90888245 8.52104492 14.70071411 8.53100586 C6.82572248 8.45917261 6.82572248 8.45917261 2.7966156 6.21864319 C1 4 1 4 0 0 Z " fill="#C6D6E4" transform="translate(186,472)"/>
<path d="M0 0 C3.96 0 7.92 0 12 0 C17.09387169 16.89836563 18.51261248 31.05643308 12.72753906 47.88037109 C11.98751042 50.03638743 11.2683796 52.19841522 10.5546875 54.36328125 C9.38312243 57.91339109 8.19593014 61.45801115 7 65 C6.34 65 5.68 65 5 65 C-6.84518466 31.92388938 -6.84518466 31.92388938 -3.0625 12.5 C-2.88009766 11.51257813 -2.69769531 10.52515625 -2.50976562 9.5078125 C-1.1534169 2.30683379 -1.1534169 2.30683379 0 0 Z " fill="#F6627B" transform="translate(250,327)"/>
<path d="M0 0 C0 16.17 0 32.34 0 49 C-9.59529206 47.80058849 -14.84951536 45.30543838 -20.8125 37.73828125 C-24.6964981 32.05282351 -24.60523498 25.64812796 -24 19 C-22.57637836 12.51584833 -19.34092577 7.38009561 -13.921875 3.51953125 C-8.59199734 0.2835341 -6.79427433 0 0 0 Z " fill="#F5CDB1" transform="translate(179,139)"/>
<path d="M0 0 C5.00230198 2.45567552 8.49851535 5.9970307 11 11 C11.85895445 16.91451492 11.08033922 21.3682911 7.6171875 26.26953125 C3.92992877 30.21507622 -0.21868695 31.6761249 -5.4375 32.625 C-11.64701716 31.53561102 -16.35116262 28.2484146 -20.0625 23.1875 C-21.71064954 17.58379157 -22.0235815 13.04716299 -19.375 7.75 C-13.26806487 0.67881196 -9.53291368 -1.53435869 0 0 Z " fill="#050506" transform="translate(447,128)"/>
<path d="M0 0 C5.00230198 2.45567552 8.49851535 5.9970307 11 11 C11.85895445 16.91451492 11.08033922 21.3682911 7.6171875 26.26953125 C3.92992877 30.21507622 -0.21868695 31.6761249 -5.4375 32.625 C-11.64701716 31.53561102 -16.35116262 28.2484146 -20.0625 23.1875 C-21.71064954 17.58379157 -22.0235815 13.04716299 -19.375 7.75 C-13.26806487 0.67881196 -9.53291368 -1.53435869 0 0 Z " fill="#050506" transform="translate(366,128)"/>
<path d="M0 0 C5.36787898 1.88869816 8.45991584 4.91983169 11 10 C11.52113171 15.22840334 11.64273534 19.64036754 9.375 24.4375 C4.82615191 29.34546768 0.81905451 31.64763057 -5.828125 32.09375 C-9.89958239 31.91800364 -12.61615582 30.41009596 -15.44140625 27.53125 C-19.82253873 22.43865156 -20.35458282 19.32704003 -20.27734375 12.76171875 C-19.75300755 7.54051177 -17.1203382 5.01363932 -13.375 1.625 C-8.79276143 -0.58126302 -4.99945212 -0.66767927 0 0 Z " fill="#040506" transform="translate(406,128)"/>
<path d="M0 0 C1.9375 1 1.9375 1 3 3 C3.23595284 5.71882023 3.13477523 8.25957022 3 11 C4.258125 10.938125 5.51625 10.87625 6.8125 10.8125 C9.37705844 10.83065617 10.71463773 10.8484013 13 12.0625 C14.58433618 15.13215135 14.36248449 17.61681143 14 21 C13 22.9375 13 22.9375 11 24 C8.28117977 24.23595284 5.74042978 24.13477523 3 24 C3.061875 25.258125 3.12375 26.51625 3.1875 27.8125 C3.16934383 30.37705844 3.1515987 31.71463773 1.9375 34 C-1.13215135 35.58433618 -3.61681143 35.36248449 -7 35 C-8.9375 34 -8.9375 34 -10 32 C-10.23595284 29.28117977 -10.13477523 26.74042978 -10 24 C-11.258125 24.061875 -12.51625 24.12375 -13.8125 24.1875 C-16.37705844 24.16934383 -17.71463773 24.1515987 -20 22.9375 C-21.58433618 19.86784865 -21.36248449 17.38318857 -21 14 C-20 12.0625 -20 12.0625 -18 11 C-15.28117977 10.76404716 -12.74042978 10.86522477 -10 11 C-10.061875 9.741875 -10.12375 8.48375 -10.1875 7.1875 C-10.16934383 4.62294156 -10.1515987 3.28536227 -8.9375 1 C-5.86784865 -0.58433618 -3.38318857 -0.36248449 0 0 Z " fill="#6FD6F9" transform="translate(112,82)"/>
<path d="M0 0 C4.30930891 0.58009928 6.05004276 2.57796374 9.25 5.4375 C13.87217395 8.13376814 19.04844531 8.09362316 24.25 7.4375 C27.91496925 6.18499367 31.10022456 4.65180365 33.78125 1.8203125 C35.25 0.4375 35.25 0.4375 38.3125 0.125 C41.25 0.4375 41.25 0.4375 43.25 2.4375 C43.66845973 5.42997368 43.67818038 6.86220737 41.8515625 9.31640625 C34.02562331 15.98237422 26.60435642 19.22978852 16.203125 18.81640625 C8.34125712 17.80767452 2.60520403 14.39025284 -3.3515625 9.31640625 C-5.17818038 6.86220737 -5.16845973 5.42997368 -4.75 2.4375 C-2.75 0.4375 -2.75 0.4375 0 0 Z " fill="#070605" transform="translate(236.75,201.5625)"/>
<path d="M0 0 C3 1 3 1 3.95703125 2.671875 C4.23933594 3.35765625 4.52164062 4.0434375 4.8125 4.75 C8.01853116 11.53852811 13.24123884 14.43167076 20 17 C20 17.66 20 18.32 20 19 C19.34773438 19.268125 18.69546875 19.53625 18.0234375 19.8125 C10.29759589 23.27659417 6.14734585 27.31488179 2.625 35 C2.41875 35.66 2.2125 36.32 2 37 C-0.75070359 35.6246482 -0.97558764 34.0460845 -2.1875 31.25 C-5.29600947 24.85012756 -8.88925708 22.18773821 -15.4375 19.6875 C-16.283125 19.460625 -17.12875 19.23375 -18 19 C-18 18.34 -18 17.68 -18 17 C-17.34773438 16.79246094 -16.69546875 16.58492187 -16.0234375 16.37109375 C-9.71400714 14.14697302 -5.55095364 11.77340364 -2 6 C-0.60794936 2.75381554 -0.60794936 2.75381554 0 0 Z " fill="#F5C84B" transform="translate(360,0)"/>
<path d="M0 0 C9.57 0 19.14 0 29 0 C29 4.62 29 9.24 29 14 C25.10300813 14.13499972 21.21069347 14.2341331 17.3125 14.3125 C16.20970703 14.35439453 15.10691406 14.39628906 13.97070312 14.43945312 C5.93692101 14.56080935 5.93692101 14.56080935 1.73046875 12.04296875 C0 9 0 9 0 0 Z " fill="#F2D481" transform="translate(49,423)"/>
<path d="M0 0 C-0.55510498 5.49004922 -1.5783263 10.50117341 -3.3125 15.75 C-3.53252686 16.43449219 -3.75255371 17.11898438 -3.97924805 17.82421875 C-4.64455164 19.88562823 -5.32041597 21.94325891 -6 24 C-6.4021875 25.22203125 -6.804375 26.4440625 -7.21875 27.703125 C-8.13725169 30.47175151 -9.06344908 33.2374364 -10 36 C-19.31543624 28.18791946 -19.31543624 28.18791946 -22 25 C-21.69920031 21.40334137 -19.98150985 19.56961802 -17.54296875 17.03125 C-16.84236328 16.29519531 -16.14175781 15.55914062 -15.41992188 14.80078125 C-14.31487305 13.66189453 -14.31487305 13.66189453 -13.1875 12.5 C-12.09985352 11.36111328 -12.09985352 11.36111328 -10.99023438 10.19921875 C-9.00313847 8.12303986 -7.00871488 6.05526173 -5 4 C-4.28110596 3.25814453 -3.56221191 2.51628906 -2.8215332 1.75195312 C-1 0 -1 0 0 0 Z " fill="#6CCFF1" transform="translate(291,281)"/>
<path d="M0 0 C17.49559194 14.63916877 17.49559194 14.63916877 22.03515625 22.87890625 C21.9844677 25.9371154 20.28907694 27.21848401 18.17773438 29.26171875 C17.64470703 29.75285156 17.11167969 30.24398438 16.5625 30.75 C16.03333984 31.25660156 15.50417969 31.76320313 14.95898438 32.28515625 C13.65022899 33.53495869 12.32648041 34.76902618 11 36 C5.14550733 27.21826099 -0.53306026 10.60197619 0 0 Z " fill="#6CD0F2" transform="translate(221,281)"/>
<path d="M0 0 C2.0625 0.6015625 2.0625 0.6015625 4.125 2.2265625 C5.46985398 5.63352591 5.57234938 7.96888568 5.0625 11.6015625 C2.47620196 15.28507789 0.99274874 16.41883507 -3.4375 17.2890625 C-6.9375 16.6015625 -6.9375 16.6015625 -9.9375 14.0390625 C-11.9375 10.6015625 -11.9375 10.6015625 -12 6.9765625 C-9.82007761 0.05210315 -6.86408926 -1.15154129 0 0 Z " fill="#070605" transform="translate(287.9375,159.3984375)"/>
<path d="M0 0 C3.80470451 0.7133821 5.41196019 1.67868421 8 4.5625 C9.0625 8 9.0625 8 9 11.5625 C7.23358828 14.36439446 5.96950178 16.07774911 3 17.5625 C-1.0130324 18.09757099 -2.53928033 17.89301628 -5.875 15.5 C-8 12.5625 -8 12.5625 -8.625 9.0625 C-7.67703424 3.75389177 -5.38444917 1.00958422 0 0 Z " fill="#060504" transform="translate(227,158.4375)"/>
<path d="M0 0 C0.66 0 1.32 0 2 0 C2.53625 1.093125 3.0725 2.18625 3.625 3.3125 C5.72529475 7.04467844 7.969086 8.44260141 12 10 C12 10.66 12 11.32 12 12 C10.906875 12.53625 9.81375 13.0725 8.6875 13.625 C4.95532156 15.72529475 3.55739859 17.969086 2 22 C1.34 22 0.68 22 0 22 C-0.53625 20.906875 -1.0725 19.81375 -1.625 18.6875 C-3.72529475 14.95532156 -5.969086 13.55739859 -10 12 C-10 11.34 -10 10.68 -10 10 C-9.071875 9.5875 -8.14375 9.175 -7.1875 8.75 C-2.97809685 6.43895513 -1.50099423 4.50298268 0 0 Z " fill="#FC637B" transform="translate(500,279)"/>
<path d="M0 0 C2.0625 1.5625 2.0625 1.5625 3 4 C2.87988224 7.42335626 2.60726153 9.95416069 0.875 12.9375 C-2.22289358 14.69297303 -4.52844534 14.48723574 -8 14 C-10.5 11.875 -10.5 11.875 -12 9 C-11.93689022 5.84451076 -11.48864121 3.86230802 -9.9375 1.125 C-6.76015463 -0.71991022 -3.56671699 -0.65253866 0 0 Z " fill="#F5C84B" transform="translate(68,126)"/>
<path d="M0 0 C2.0625 1.5625 2.0625 1.5625 3 4 C2.87988224 7.42335626 2.60726153 9.95416069 0.875 12.9375 C-2.22289358 14.69297303 -4.52844534 14.48723574 -8 14 C-10.5 11.875 -10.5 11.875 -12 9 C-11.93689022 5.84451076 -11.48864121 3.86230802 -9.9375 1.125 C-6.76015463 -0.71991022 -3.56671699 -0.65253866 0 0 Z " fill="#87D146" transform="translate(406,42)"/>
<path d="M0 0 C1.9375 1.0625 1.9375 1.0625 3 3 C2.875 6.5625 2.875 6.5625 2 10 C-1 12 -1 12 -4.0625 11.8125 C-7 11 -7 11 -9 8 C-9.35384949 5.16920408 -9.3920891 3.63169911 -7.875 1.1875 C-5.12844028 -0.55198782 -3.18153026 -0.39769128 0 0 Z " fill="#6ACAEC" transform="translate(445,138)"/>
<path d="M0 0 C1.9375 1.0625 1.9375 1.0625 3 3 C2.875 6.5625 2.875 6.5625 2 10 C-1 12 -1 12 -4.0625 11.8125 C-7 11 -7 11 -9 8 C-9.35384949 5.16920408 -9.3920891 3.63169911 -7.875 1.1875 C-5.12844028 -0.55198782 -3.18153026 -0.39769128 0 0 Z " fill="#6ACAEC" transform="translate(364,138)"/>
<path d="M0 0 C3.5 0.25 3.5 0.25 5.5 2.25 C5.875 5.6875 5.875 5.6875 5.5 9.25 C3.8125 11.25 3.8125 11.25 1.5 12.25 C-1.87036311 12.00925978 -3.08798021 11.66201979 -5.5 9.25 C-5.75 5.75 -5.75 5.75 -5.5 2.25 C-3.5 0.25 -3.5 0.25 0 0 Z " fill="#6ACBEC" transform="translate(401.5,137.75)"/>
<path d="M0 0 C1.90625 0.47265625 1.90625 0.47265625 4.40625 2.97265625 C4.90125 3.79765625 5.39625 4.62265625 5.90625 5.47265625 C2.61674089 8.12548618 0.32642635 8.69879632 -3.78125 8.34765625 C-6.10546875 8.08984375 -6.10546875 8.08984375 -8.09375 7.47265625 C-8.75375 6.48265625 -9.41375 5.49265625 -10.09375 4.47265625 C-7.12775459 0.51799571 -4.73984662 -0.20338894 0 0 Z " fill="#EF899F" transform="translate(258.09375,309.52734375)"/>
<path d="M0 0 C1.21065165 3.63195496 0.62784815 5.06531629 -0.4375 8.6875 C-0.72496094 9.68136719 -1.01242188 10.67523438 -1.30859375 11.69921875 C-1.53675781 12.45847656 -1.76492187 13.21773438 -2 14 C-4.02416481 10.96375279 -4.91619066 9.60380177 -5 6 C-3.54204676 3.71047343 -1.88961302 1.98178927 0 0 Z " fill="#3597C4" transform="translate(240,322)"/>
<path d="M0 0 C4.875 4.625 4.875 4.625 6 8 C5.0625 11.1875 5.0625 11.1875 4 14 C1.90284215 10.85426323 1.47995441 8.98543749 0.875 5.3125 C0.70742188 4.31863281 0.53984375 3.32476562 0.3671875 2.30078125 C0.24601562 1.54152344 0.12484375 0.78226562 0 0 Z " fill="#369BC8" transform="translate(271,322)"/>
</svg>
